HIERARCHY
ROOT hip
{
	OFFSET 0.000000 0.000000 0.000000 
	CHANNELS 6 Xposition Yposition Zposition Xrotation Zrotation Yrotation
	JOINT abdomen
	{
		OFFSET 0.000000 3.402643 0.000000 
		CHANNELS 3 Xrotation Zrotation Yrotation
		JOINT chest
		{
			OFFSET 0.000000 8.438565 -0.680529 
			CHANNELS 3 Xrotation Zrotation Yrotation
			JOINT neck
			{
				OFFSET 0.000000 10.207942 -0.272212 
				CHANNELS 3 Xrotation Zrotation Yrotation
				JOINT head
				{
					OFFSET 0.000000 3.130431 0.000000 
					CHANNELS 3 Xrotation Zrotation Yrotation
					End Site
					{
						OFFSET 0.000000 3.130435 0.000000 
					}
				}
			}
			JOINT lCollar
			{
				OFFSET 3.470700 6.669187 -0.816635 
				CHANNELS 3 Yrotation Zrotation Xrotation
				JOINT lShldr
				{
					OFFSET 3.198488 0.000000 0.000000 
					CHANNELS 3 Zrotation Yrotation Xrotation
					JOINT lForeArm
					{
						OFFSET 10.139888 0.000000 0.000000 
						CHANNELS 3 Yrotation Zrotation Xrotation
						JOINT lHand
						{
							OFFSET 8.370511 0.000000 0.000000 
							CHANNELS 3 Zrotation Yrotation Xrotation
							End Site
							{
								OFFSET 4.083176 0.000000 0.000000 
							}
						}
					}
				}
			}
			JOINT rCollar
			{
				OFFSET -3.470700 6.669187 -0.816635 
				CHANNELS 3 Yrotation Zrotation Xrotation
				JOINT rShldr
				{
					OFFSET -3.198488 0.000000 0.000000 
					CHANNELS 3 Zrotation Yrotation Xrotation
					JOINT rForeArm
					{
						OFFSET -10.139888 0.000000 0.000000 
						CHANNELS 3 Yrotation Zrotation Xrotation
						JOINT rHand
						{
							OFFSET -8.370511 0.000000 0.000000 
							CHANNELS 3 Zrotation Yrotation Xrotation
							End Site
							{
								OFFSET -4.083176 0.000000 0.000000 
							}
						}
					}
				}
			}
		}
	}
	JOINT lThigh
	{
		OFFSET 5.308129 -1.633274 1.361059 
		CHANNELS 3 Xrotation Zrotation Yrotation
		JOINT lShin
		{
			OFFSET -2.041588 -20.007561 0.000000 
			CHANNELS 3 Xrotation Zrotation Yrotation
			JOINT lFoot
			{
				OFFSET 0.000000 -19.190928 -1.224953 
				CHANNELS 3 Xrotation Yrotation Zrotation
				End Site
				{
					OFFSET 0.000000 -2.449906 4.627600 
				}
			}
		}
	}
	JOINT rThigh
	{
		OFFSET -5.308129 -1.633274 1.361059 
		CHANNELS 3 Xrotation Zrotation Yrotation
		JOINT rShin
		{
			OFFSET 2.041588 -20.007561 0.000000 
			CHANNELS 3 Xrotation Zrotation Yrotation
			JOINT rFoot
			{
				OFFSET 0.000000 -19.190928 -1.224953 
				CHANNELS 3 Xrotation Yrotation Zrotation
				End Site
				{
					OFFSET 0.000000 -2.449906 4.627600 
				}
			}
		}
	}
}
MOTION
Frames: 14
Frame Time: 0.033333
-0.072430 43.098801 0.730689 5.026691 -7.490092 -0.354928 0.000000 0.000000 0.000000 17.053709 -0.660831 5.654596 -10.038927 6.220510 0.452923 -13.866262 -5.248204 -2.678056 0.561622 27.642250 24.195822 -102.497620 -21.308649 4.502628 -45.628693 7.480276 88.139061 -22.547895 -4.837071 -56.285824 -15.300208 -17.751106 19.428047 70.805374 9.170655 71.190697 54.938168 -46.272495 46.258789 36.755722 4.912755 -80.120049 -22.156099 -1.826092 15.216220 69.136475 24.617697 2.661627 -40.317844 -7.971492 7.518240 -41.063969 -4.042831 1.676939 121.696228 -2.478751 7.995115 -4.596492 -4.374419 -7.012707 
-0.278625 45.390942 0.989949 8.865497 -10.698085 -1.779291 0.000000 0.000000 0.000000 11.514944 2.521967 6.657241 -6.928740 6.532984 0.472373 -11.368563 -5.319726 -1.775354 1.351979 27.661894 23.806087 -102.572273 -18.761332 4.530602 -50.009922 4.294405 88.937775 -25.176750 -0.801156 -57.754128 -15.330832 -18.693367 19.145592 69.599365 5.370224 71.245140 62.920685 -46.309933 52.862427 38.244781 3.795008 -80.306725 -18.827440 3.583715 17.146519 53.569332 21.957708 2.642390 -30.000629 -15.263996 2.514987 -42.915371 -1.748037 2.438755 124.118584 -0.134873 8.576234 -3.655016 -6.902642 -9.522539 
-0.396925 47.446232 1.164042 11.837029 -12.662656 -1.343123 0.000000 0.000000 0.000000 7.361001 4.369338 7.238119 -4.553113 7.753538 0.562091 -9.473440 -6.396139 -3.233124 0.793695 29.996405 24.012403 -105.961075 -16.841829 6.122666 -51.190979 3.884328 89.408844 -23.831888 -0.476648 -58.007671 -16.634571 -17.064878 19.182318 68.747986 3.722857 71.050186 62.881039 -46.865318 55.719090 39.342125 5.424142 -80.161705 -17.021608 7.266076 18.496576 41.601852 17.027229 2.082141 -13.959791 -20.333357 -0.118001 -43.123585 -1.337417 2.579024 125.779480 2.052788 9.119588 -6.365737 -5.938529 -15.177350 
-0.450365 49.384876 1.224563 14.873400 -13.534655 -0.504432 0.000000 0.000000 0.000000 3.526290 5.044363 7.520306 -2.664534 8.876403 0.643739 -8.402336 -7.337999 -4.776027 -1.311012 29.992344 24.991159 -107.244431 -15.464044 6.736604 -52.572865 4.420716 89.963470 -22.435699 -2.109814 -57.350113 -17.937777 -14.530686 19.600773 68.254990 3.223508 70.843170 59.458778 -48.134762 56.082455 39.693195 7.625654 -79.840332 -17.809431 9.430266 19.128592 34.548767 11.769156 1.288535 -0.889796 -21.902193 2.641809 -43.522457 -1.913748 2.434669 127.646248 3.556851 9.465954 -9.164421 -4.863980 -18.262592 
-0.440804 50.865215 1.108177 18.144154 -13.642409 0.291336 0.000000 0.000000 0.000000 0.027326 5.043452 7.598123 -1.490198 9.384110 0.683918 -7.751822 -7.626127 -5.883307 -3.737341 29.871542 24.994091 -107.530350 -14.329385 6.889847 -54.132282 5.055784 90.865601 -20.457609 -3.011920 -57.180443 -18.811731 -12.696500 19.997478 68.242882 3.417289 70.790787 55.876511 -49.451469 56.021862 39.567421 9.631598 -79.430603 -21.800524 10.140277 18.891426 33.443771 8.962545 0.695410 5.735980 -20.734241 5.356023 -44.998791 -2.783249 2.265826 130.050812 4.349100 9.664404 -11.802096 -3.886458 -20.164001 
-0.428153 51.584221 0.994291 19.627022 -13.281156 0.220315 0.000000 0.000000 0.000000 -1.125072 4.714974 7.535580 -0.884847 9.374345 0.683917 -7.740807 -7.941046 -5.591779 -4.013934 29.593536 24.994123 -107.438225 -12.804810 6.881015 -55.342300 4.452822 93.535606 -18.301950 -3.143562 -57.318169 -18.279575 -11.816342 20.435770 68.383385 4.488580 70.664139 53.476509 -49.562489 54.788342 39.791103 9.469216 -79.455803 -25.116230 10.135970 18.417364 35.907425 9.081445 0.576695 3.670228 -20.422409 5.416866 -45.250744 -2.704943 2.282135 131.355240 4.377541 9.676474 -11.860803 -4.492335 -19.347969 
-0.395922 51.736015 0.869884 19.939837 -12.646385 0.229850 0.000000 0.000000 0.000000 -0.656322 4.260998 7.423126 -0.809287 8.856874 0.643736 -8.137798 -7.996956 -5.020062 -3.759310 28.850824 24.991451 -107.117371 -11.675749 6.767196 -56.895905 4.296907 98.203781 -18.248594 -4.952624 -56.477726 -17.565832 -11.775955 20.610563 68.800049 5.772002 70.662163 52.761051 -49.543217 53.999706 40.742809 8.496393 -79.680756 -27.861139 9.463035 17.787664 39.658863 10.247504 0.625336 0.118955 -19.299820 4.414423 -44.656246 -2.646005 2.266810 132.545868 4.152941 9.622644 -11.854007 -5.247607 -18.749729 
-0.387581 51.372047 0.743300 19.580971 -12.343616 0.268015 0.000000 0.000000 0.000000 0.852167 4.174305 7.373708 -1.480544 8.095291 0.582807 -8.763511 -7.906225 -4.437303 -3.202032 27.844042 24.987501 -106.670303 -10.751690 6.586829 -57.357716 4.980721 100.810555 -16.585379 -6.777130 -56.094501 -16.588118 -12.138557 20.727560 69.482597 6.845975 70.868393 52.697163 -50.473984 53.466583 41.630753 7.870374 -79.870750 -29.608358 9.061984 17.389570 42.488914 10.917999 0.610719 -1.771165 -17.848446 5.829710 -43.604225 -2.129275 2.395294 133.043732 4.173180 9.673299 -11.636373 -6.135327 -18.666292 
-0.424125 50.556740 0.532091 20.068312 -12.558578 0.090035 0.000000 0.000000 0.000000 1.680172 4.560890 7.456121 -2.629953 7.196970 0.522064 -9.759673 -7.094234 -3.759760 -2.662078 27.584135 24.986040 -106.640305 -9.920376 6.600425 -56.870064 5.616414 101.374496 -12.922651 -6.944770 -56.795162 -15.423354 -12.349395 20.950834 69.883972 7.677750 70.941635 53.407707 -52.231033 53.537502 42.178131 7.654908 -79.962967 -32.187054 9.257719 17.008865 44.782021 11.043951 0.520897 -1.474785 -16.701324 7.653588 -43.913448 -1.278958 2.629189 132.979492 4.738799 9.761034 -11.745195 -6.438927 -18.742649 
-0.476227 48.833775 0.162380 21.903536 -12.810899 -0.921544 0.000000 0.000000 0.000000 1.601019 5.265969 7.610486 -4.117424 5.810390 0.422708 -10.534872 -6.582852 -2.999164 -0.536787 28.502319 24.742704 -106.931458 -8.605659 6.788275 -56.458771 4.895378 97.802132 -11.571159 -6.806265 -57.183449 -13.842476 -13.247740 21.097130 70.576859 9.376885 71.009041 54.573265 -53.783287 53.686237 43.727608 7.148713 -80.204834 -37.414120 9.985393 16.271580 49.941959 11.517884 0.383374 -4.620358 -16.056198 6.314110 -46.145741 -0.117483 3.110935 132.503632 5.288796 9.953070 -11.339131 -7.075908 -18.231190 
-0.586697 46.787247 -0.278141 23.782209 -13.865889 -2.335307 0.000000 0.000000 0.000000 1.590449 6.828291 7.986863 -5.838116 4.150336 0.294321 -12.460660 -4.266669 -1.185631 0.259552 27.233290 24.363672 -105.269081 -8.072863 6.028669 -56.435921 5.226054 94.950111 -10.254611 -6.241585 -57.687130 -12.465740 -14.825772 21.077311 71.898094 11.559805 71.338768 54.841820 -54.687553 52.789780 45.217789 6.584690 -80.527428 -44.020599 11.404706 15.321725 57.873833 13.110184 0.422629 -8.319756 -14.848010 2.992196 -49.197929 1.513995 3.791652 132.160294 6.349941 10.163634 -11.085328 -6.476388 -19.077616 
-0.786762 44.532124 -0.646849 23.944078 -15.865648 -3.777226 0.000000 0.000000 0.000000 3.579000 9.243894 8.540247 -8.007851 2.851546 0.195556 -13.756884 -4.218749 -0.039675 1.081878 26.193439 24.000525 -103.426575 -8.096897 5.145679 -57.232250 5.670919 91.078949 -10.051148 -7.749105 -57.287327 -10.453938 -16.496338 21.302406 73.998375 14.480516 71.951187 51.839317 -55.474422 48.877285 46.132122 5.574665 -80.886581 -49.923851 13.296209 14.554772 67.898300 16.262756 0.762374 -16.994514 -13.267637 0.667368 -50.913681 4.208368 4.674015 131.196884 8.179398 10.599866 -10.565462 -6.411046 -22.233559 
-0.948518 42.021839 -0.844825 21.061796 -16.811985 -5.479757 0.000000 0.000000 0.000000 8.761153 10.227077 8.635788 -10.505448 1.386717 0.097864 -8.635973 -0.886524 3.984804 5.284500 25.258823 22.086647 -101.271385 -9.486352 4.050650 -56.121887 4.647371 93.067184 -10.086052 -7.907955 -57.082050 -6.136733 -17.287533 22.528595 76.698700 19.746902 72.330582 42.733891 -55.684208 43.943604 45.986599 7.564772 -80.465096 -53.184814 14.165236 14.003372 80.218628 19.735941 1.263902 -28.250961 -9.195606 0.275201 -49.827606 7.449605 5.591324 127.539070 8.969973 10.762747 -8.973185 -7.843877 -25.636141 
-0.832713 40.479095 -1.035484 19.752037 -15.298956 -4.861133 0.000000 0.000000 0.000000 10.605374 8.672215 8.170223 -11.257743 1.318358 0.088092 -10.440965 -0.477523 3.691522 5.356933 25.404200 22.032133 -100.816185 -12.575716 3.751633 -53.505306 5.521155 93.423462 -10.304564 -9.106913 -56.792915 -5.449906 -18.244093 22.637486 78.022255 21.481272 72.693962 39.198204 -55.014126 40.584023 45.816864 7.077440 -80.535400 -55.606594 11.500159 12.575968 86.892357 19.667494 1.162949 -35.499664 -5.901811 4.396843 -51.463051 6.064179 5.261891 125.943321 8.218744 10.564010 -8.505340 -5.548421 -28.466595 
